<?xml version="1.0" encoding="UTF-8"?>
<svg width="440px" height="137px" viewBox="0 0 440 146" version="1.1" xmlns="http://www.w3.org/2000/svg" xmlns:xlink="http://www.w3.org/1999/xlink">
        <g transform="translate(-481.000000, -215.000000)" fill="#FFFFFE">
            <g transform="translate(-1.000000, -27.000000)">
                <g transform="translate(481.000000, 242.000000)">
                    <text font-family="Athelas-Bold, Athelas" font-size="50.7145" font-weight="bold">
                        <tspan x="0" y="136">GARP Risk Institute</tspan>
                    </text>
                    <polygon points="143 49 143 64.813 221.144 83.045 297.641 64.813 297.641 49 221.144 77.646"></polygon>
                    <polygon points="160 40 160 43.328 220.448 72.234 280.989 43.328 280.989 40 220.448 68.356"></polygon>
                    <g transform="translate(195.000000, 0.000000)">
                        <path d="M30.6989,24.0161 C30.6989,26.8541 28.4019,29.1561 25.5659,29.1561 C22.7319,29.1561 20.4279,26.8541 20.4279,24.0161 C20.4279,21.1801 22.7319,18.8821 25.5659,18.8821 C28.4019,18.8821 30.6989,21.1801 30.6989,24.0161"></path>
                        <path d="M31.7873,46.7319 C18.7523,45.2319 7.3903,37.4329 7.3903,27.4559 C7.3903,18.7189 16.4373,11.7559 27.1033,9.0409 C27.1033,9.0409 27.4633,8.9609 27.4543,8.7049 C27.4443,8.4089 27.1033,8.4539 27.1033,8.4539 C13.5603,9.8359 0.1723,17.4209 0.1723,27.7659 C0.1723,39.0359 15.9733,47.2899 31.0373,47.2899 C31.2883,47.2899 31.5373,47.2919 31.7873,47.2779 C32.1903,47.2539 32.1533,46.9869 32.1533,46.9869 C32.1533,46.7479 31.7873,46.7319 31.7873,46.7319"></path>
                        <path d="M19.3224,1.5131 C32.3574,3.0141 43.7184,10.8121 43.7184,20.7901 C43.7184,29.5261 34.6714,36.4881 24.0064,39.2041 C24.0064,39.2041 23.6464,39.2841 23.6554,39.5401 C23.6644,39.8371 24.0064,39.7911 24.0064,39.7911 C37.5494,38.4091 50.9374,30.8241 50.9374,20.4791 C50.9374,9.2091 35.1364,0.9551 20.0724,0.9551 C19.8204,0.9551 19.5714,0.9531 19.3224,0.9681 C18.9194,0.9911 18.9554,1.2581 18.9554,1.2581 C18.9554,1.4971 19.3224,1.5131 19.3224,1.5131"></path>
                    </g>
                </g>
            </g>
        </g>
</svg>