<?xml version="1.0" encoding="UTF-8"?>
<svg width="537px" height="529px" viewBox="0 0 537 529" version="1.1" xmlns="http://www.w3.org/2000/svg" xmlns:xlink="http://www.w3.org/1999/xlink">
    <!-- Generator: Sketch 49.1 (51147) - http://www.bohemiancoding.com/sketch -->
    <title>network-circles</title>
    <desc>Created with Sketch.</desc>
    <defs>
        <circle id="path-1" cx="25" cy="25" r="25"></circle>
        <circle id="path-3" cx="25" cy="25" r="25"></circle>
        <circle id="path-5" cx="25" cy="25" r="25"></circle>
        <circle id="path-7" cx="25" cy="25" r="25"></circle>
        <circle id="path-9" cx="25" cy="25" r="25"></circle>
        <circle id="path-11" cx="25" cy="25" r="25"></circle>
        <circle id="path-13" cx="25" cy="25" r="25"></circle>
    </defs>
    <g id="Membership" stroke="none" stroke-width="1" fill="none" fill-rule="evenodd">
        <g id="membership-overview" transform="translate(0.000000, -1137.000000)">
            <g id="network-circles" transform="translate(-36.000000, 1139.000000)">
                <path d="M203.5,161.5 L264.5,301.5" id="Line-2" stroke="#006C99" stroke-width="3" fill="#FFFFFF" stroke-linecap="square"></path>
                <path d="M297.5,308.5 L422.5,191.5" id="Line-3" stroke="#006C99" stroke-width="3" fill="#FFFFFF" stroke-linecap="square"></path>
                <path d="M289.5,345.5 L447.5,485.5" id="Line-5" stroke="#006C99" stroke-width="3" fill="#FFFFFF" stroke-linecap="square"></path>
                <path d="M161.5,417.5 L254.5,338.5" id="Line-6" stroke="#006C99" stroke-width="3" fill="#FFFFFF" stroke-linecap="square"></path>
                <path d="M336.5,42.5 L283.5,299.5" id="Line-7" stroke="#006C99" stroke-width="3" fill="#FFFFFF" stroke-linecap="square"></path>
                <path d="M249.5,321.5 L25.5,291.5" id="Line-8" stroke="#006C99" stroke-width="3" fill="#FFFFFF" stroke-linecap="square"></path>
                <path d="M301.5,323.5 L520.5,323.5" id="Line-9" stroke="#006C99" stroke-width="3" fill="#FFFFFF" stroke-linecap="square"></path>
                <g id="female-avatar" transform="translate(117.000000, 410.000000)">
                    <mask id="mask-2" fill="white">
                        <use xlink:href="#path-1"></use>
                    </mask>
                    <use id="Mask" stroke="#006C99" stroke-width="3" fill="#FFFFFF" xlink:href="#path-1"></use>
                    <path d="M39.7858,37.7276 C39.7858,37.7276 30.4708,33.6536 29.6268,32.1966 C30.3268,31.7616 30.8868,31.3386 31.3318,30.8186 C36.3448,32.3686 38.9958,31.5266 38.9958,31.5266 C35.2238,28.1466 35.9168,18.7136 35.9168,18.7136 L35.9068,18.7186 C35.9428,18.3536 35.9638,17.9866 35.9638,17.6126 C35.9638,11.7506 31.2108,6.9996 25.3498,6.9996 C19.4888,6.9996 14.7378,11.7506 14.7378,17.6126 C14.7378,17.9866 14.7568,18.3536 14.7958,18.7186 L14.7838,18.7136 C14.7838,18.7136 15.4778,28.1466 11.7048,31.5266 C11.7048,31.5266 14.3558,32.3686 19.3698,30.8186 C19.8148,31.3386 20.3758,31.7616 21.0748,32.1966 C20.2318,33.6536 10.9148,37.7276 10.9148,37.7276 C5.4688,39.8116 6.0148,44.9806 6.0148,49.7386 L44.6868,49.7386 C44.6868,44.9806 45.2338,39.8116 39.7858,37.7276" id="Fill-1" fill="#006C99" mask="url(#mask-2)"></path>
                </g>
                <g id="female-avatar" transform="translate(521.000000, 298.000000)">
                    <mask id="mask-4" fill="white">
                        <use xlink:href="#path-3"></use>
                    </mask>
                    <use id="Mask" stroke="#006C99" stroke-width="3" fill="#FFFFFF" xlink:href="#path-3"></use>
                    <path d="M39.7858,37.7276 C39.7858,37.7276 30.4708,33.6536 29.6268,32.1966 C30.3268,31.7616 30.8868,31.3386 31.3318,30.8186 C36.3448,32.3686 38.9958,31.5266 38.9958,31.5266 C35.2238,28.1466 35.9168,18.7136 35.9168,18.7136 L35.9068,18.7186 C35.9428,18.3536 35.9638,17.9866 35.9638,17.6126 C35.9638,11.7506 31.2108,6.9996 25.3498,6.9996 C19.4888,6.9996 14.7378,11.7506 14.7378,17.6126 C14.7378,17.9866 14.7568,18.3536 14.7958,18.7186 L14.7838,18.7136 C14.7838,18.7136 15.4778,28.1466 11.7048,31.5266 C11.7048,31.5266 14.3558,32.3686 19.3698,30.8186 C19.8148,31.3386 20.3758,31.7616 21.0748,32.1966 C20.2318,33.6536 10.9148,37.7276 10.9148,37.7276 C5.4688,39.8116 6.0148,44.9806 6.0148,49.7386 L44.6868,49.7386 C44.6868,44.9806 45.2338,39.8116 39.7858,37.7276" id="Fill-1" fill="#006C99" mask="url(#mask-4)"></path>
                </g>
                <g id="male-avatar" transform="translate(251.000000, 298.000000)">
                    <mask id="mask-6" fill="white">
                        <use xlink:href="#path-5"></use>
                    </mask>
                    <use id="Mask" stroke="#006C99" stroke-width="3" fill="#FFFFFF" xlink:href="#path-5"></use>
                    <path d="M41.5039,37.8233 C41.5039,37.8233 33.9849,34.9243 33.9759,34.9183 C32.2269,34.1953 29.8289,33.7493 28.9869,32.2923 C30.2569,31.5003 31.0869,30.7643 31.5529,29.3733 C31.6699,29.0283 32.1009,26.4063 32.0279,26.3913 C33.3699,26.6423 33.6079,24.7423 33.7089,24.2333 C34.3439,21.0003 32.9149,21.3273 32.9149,21.3273 C34.3319,18.6893 33.6669,9.3253 24.7749,9.0103 C24.7749,9.0103 24.6709,9.0003 24.6469,9.0003 L24.6469,9.0103 C15.7549,9.3253 15.0899,18.6893 16.5059,21.3273 C16.5059,21.3273 15.0759,21.0003 15.7129,24.2333 C15.8139,24.7423 16.0509,26.6423 17.3939,26.3913 C17.3199,26.4063 17.7499,29.0283 17.8659,29.3733 C18.3359,30.7643 19.1639,31.5003 20.4339,32.2923 C19.5929,33.7493 17.1939,34.1953 15.4469,34.9183 C15.4349,34.9243 7.9169,37.8233 7.9169,37.8233 C2.4699,39.9083 3.0149,45.0763 3.0149,49.8333 L46.4049,49.8333 C46.4049,45.0763 46.9529,39.9083 41.5039,37.8233" id="Fill-1" fill="#006C99" mask="url(#mask-6)"></path>
                </g>
                <g id="male-avatar" transform="translate(443.000000, 475.000000)">
                    <mask id="mask-8" fill="white">
                        <use xlink:href="#path-7"></use>
                    </mask>
                    <use id="Mask" stroke="#006C99" stroke-width="3" fill="#FFFFFF" xlink:href="#path-7"></use>
                    <path d="M41.5039,37.8233 C41.5039,37.8233 33.9849,34.9243 33.9759,34.9183 C32.2269,34.1953 29.8289,33.7493 28.9869,32.2923 C30.2569,31.5003 31.0869,30.7643 31.5529,29.3733 C31.6699,29.0283 32.1009,26.4063 32.0279,26.3913 C33.3699,26.6423 33.6079,24.7423 33.7089,24.2333 C34.3439,21.0003 32.9149,21.3273 32.9149,21.3273 C34.3319,18.6893 33.6669,9.3253 24.7749,9.0103 C24.7749,9.0103 24.6709,9.0003 24.6469,9.0003 L24.6469,9.0103 C15.7549,9.3253 15.0899,18.6893 16.5059,21.3273 C16.5059,21.3273 15.0759,21.0003 15.7129,24.2333 C15.8139,24.7423 16.0509,26.6423 17.3939,26.3913 C17.3199,26.4063 17.7499,29.0283 17.8659,29.3733 C18.3359,30.7643 19.1639,31.5003 20.4339,32.2923 C19.5929,33.7493 17.1939,34.1953 15.4469,34.9183 C15.4349,34.9243 7.9169,37.8233 7.9169,37.8233 C2.4699,39.9083 3.0149,45.0763 3.0149,49.8333 L46.4049,49.8333 C46.4049,45.0763 46.9529,39.9083 41.5039,37.8233" id="Fill-1" fill="#006C99" mask="url(#mask-8)"></path>
                </g>
                <g id="male-avatar" transform="translate(170.000000, 110.000000)">
                    <mask id="mask-10" fill="white">
                        <use xlink:href="#path-9"></use>
                    </mask>
                    <use id="Mask" stroke="#006C99" stroke-width="3" fill="#FFFFFF" xlink:href="#path-9"></use>
                    <path d="M41.5039,37.8233 C41.5039,37.8233 33.9849,34.9243 33.9759,34.9183 C32.2269,34.1953 29.8289,33.7493 28.9869,32.2923 C30.2569,31.5003 31.0869,30.7643 31.5529,29.3733 C31.6699,29.0283 32.1009,26.4063 32.0279,26.3913 C33.3699,26.6423 33.6079,24.7423 33.7089,24.2333 C34.3439,21.0003 32.9149,21.3273 32.9149,21.3273 C34.3319,18.6893 33.6669,9.3253 24.7749,9.0103 C24.7749,9.0103 24.6709,9.0003 24.6469,9.0003 L24.6469,9.0103 C15.7549,9.3253 15.0899,18.6893 16.5059,21.3273 C16.5059,21.3273 15.0759,21.0003 15.7129,24.2333 C15.8139,24.7423 16.0509,26.6423 17.3939,26.3913 C17.3199,26.4063 17.7499,29.0283 17.8659,29.3733 C18.3359,30.7643 19.1639,31.5003 20.4339,32.2923 C19.5929,33.7493 17.1939,34.1953 15.4469,34.9183 C15.4349,34.9243 7.9169,37.8233 7.9169,37.8233 C2.4699,39.9083 3.0149,45.0763 3.0149,49.8333 L46.4049,49.8333 C46.4049,45.0763 46.9529,39.9083 41.5039,37.8233" id="Fill-1" fill="#006C99" mask="url(#mask-10)"></path>
                </g>
                <g id="male-avatar" transform="translate(414.000000, 146.000000)">
                    <mask id="mask-12" fill="white">
                        <use xlink:href="#path-11"></use>
                    </mask>
                    <use id="Mask" stroke="#006C99" stroke-width="3" fill="#FFFFFF" xlink:href="#path-11"></use>
                    <path d="M41.5039,37.8233 C41.5039,37.8233 33.9849,34.9243 33.9759,34.9183 C32.2269,34.1953 29.8289,33.7493 28.9869,32.2923 C30.2569,31.5003 31.0869,30.7643 31.5529,29.3733 C31.6699,29.0283 32.1009,26.4063 32.0279,26.3913 C33.3699,26.6423 33.6079,24.7423 33.7089,24.2333 C34.3439,21.0003 32.9149,21.3273 32.9149,21.3273 C34.3319,18.6893 33.6669,9.3253 24.7749,9.0103 C24.7749,9.0103 24.6709,9.0003 24.6469,9.0003 L24.6469,9.0103 C15.7549,9.3253 15.0899,18.6893 16.5059,21.3273 C16.5059,21.3273 15.0759,21.0003 15.7129,24.2333 C15.8139,24.7423 16.0509,26.6423 17.3939,26.3913 C17.3199,26.4063 17.7499,29.0283 17.8659,29.3733 C18.3359,30.7643 19.1639,31.5003 20.4339,32.2923 C19.5929,33.7493 17.1939,34.1953 15.4469,34.9183 C15.4349,34.9243 7.9169,37.8233 7.9169,37.8233 C2.4699,39.9083 3.0149,45.0763 3.0149,49.8333 L46.4049,49.8333 C46.4049,45.0763 46.9529,39.9083 41.5039,37.8233" id="Fill-1" fill="#006C99" mask="url(#mask-12)"></path>
                </g>
                <g id="female-avatar" transform="translate(312.000000, 0.000000)">
                    <mask id="mask-14" fill="white">
                        <use xlink:href="#path-13"></use>
                    </mask>
                    <use id="Mask" stroke="#006C99" stroke-width="3" fill="#FFFFFF" xlink:href="#path-13"></use>
                    <path d="M39.7858,37.7276 C39.7858,37.7276 30.4708,33.6536 29.6268,32.1966 C30.3268,31.7616 30.8868,31.3386 31.3318,30.8186 C36.3448,32.3686 38.9958,31.5266 38.9958,31.5266 C35.2238,28.1466 35.9168,18.7136 35.9168,18.7136 L35.9068,18.7186 C35.9428,18.3536 35.9638,17.9866 35.9638,17.6126 C35.9638,11.7506 31.2108,6.9996 25.3498,6.9996 C19.4888,6.9996 14.7378,11.7506 14.7378,17.6126 C14.7378,17.9866 14.7568,18.3536 14.7958,18.7186 L14.7838,18.7136 C14.7838,18.7136 15.4778,28.1466 11.7048,31.5266 C11.7048,31.5266 14.3558,32.3686 19.3698,30.8186 C19.8148,31.3386 20.3758,31.7616 21.0748,32.1966 C20.2318,33.6536 10.9148,37.7276 10.9148,37.7276 C5.4688,39.8116 6.0148,44.9806 6.0148,49.7386 L44.6868,49.7386 C44.6868,44.9806 45.2338,39.8116 39.7858,37.7276" id="Fill-1" fill="#006C99" mask="url(#mask-14)"></path>
                </g>
            </g>
        </g>
    </g>
</svg>