<?xml version="1.0" encoding="UTF-8"?>
<svg width="42px" height="42px" viewBox="0 0 42 42" version="1.1" xmlns="http://www.w3.org/2000/svg" xmlns:xlink="http://www.w3.org/1999/xlink">
    <g stroke="none" stroke-width="1" fill="none" fill-rule="evenodd">
        <g transform="translate(-231.000000, -1777.000000)">
            <g transform="translate(0.000000, 1320.000000)">
                <g transform="translate(217.000000, 435.000000)">
                    <g transform="translate(15.000000, 23.000000)">
                        <path d="M24.3902439,35.1219512 L31.2195122,35.1219512" fill-opacity="0" fill="#000000"></path>
                        <path d="M24.3902439,35.1219512 L31.2195122,35.1219512" stroke="#081A31" stroke-width="2"></path>
                        <path d="M7.80487805,19.5121951 L15.6097561,19.5121951" fill-opacity="0" fill="#000000"></path>
                        <path d="M7.80487805,19.5121951 L15.6097561,19.5121951" stroke="#081A31" stroke-width="2"></path>
                        <path d="M19.5121951,24.3902439 L19.5121951,31.2195122" fill-opacity="0" fill="#000000"></path>
                        <path d="M20,24.3902439 L20,32.195122" stroke="#081A31" stroke-width="2"></path>
                        <path d="M6.66187826,1.14299952 C8.18587798,2.66699889 8.18587798,5.13787916 6.66187826,6.66187853 C5.13787855,8.18587789 2.66699446,8.18587789 1.14299735,6.66187853 C-0.380999116,5.13787916 -0.380999116,2.66699889 1.14299735,1.14299952 C2.66699446,-0.380999841 5.13787855,-0.380999841 6.66187826,1.14299952" fill-opacity="0" fill="#000000"></path>
                        <path d="M6.66187826,1.14299735 C8.18587798,2.66699446 8.18587798,5.13787855 6.66187826,6.66187826 C5.13787855,8.18587798 2.66699446,8.18587798 1.14299735,6.66187826 C-0.380999116,5.13787855 -0.380999116,2.66699446 1.14299735,1.14299735 C2.66699446,-0.380999116 5.13787855,-0.380999116 6.66187826,1.14299735" stroke="#081A31" stroke-width="2" stroke-linecap="square"></path>
                        <path d="M6.66187826,16.7527556 C8.18587798,18.276755 8.18587798,20.7476353 6.66187826,22.2716346 C5.13787855,23.795634 2.66699446,23.795634 1.14299735,22.2716346 C-0.380999116,20.7476353 -0.380999116,18.276755 1.14299735,16.7527556 C2.66699446,15.2287563 5.13787855,15.2287563 6.66187826,16.7527556" fill-opacity="0" fill="#000000"></path>
                        <path d="M6.66187826,16.7527556 C8.18587798,18.276755 8.18587798,20.7476353 6.66187826,22.2716346 C5.13787855,23.795634 2.66699446,23.795634 1.14299735,22.2716346 C-0.380999116,20.7476353 -0.380999116,18.276755 1.14299735,16.7527556 C2.66699446,15.2287563 5.13787855,15.2287563 6.66187826,16.7527556" stroke="#081A31" stroke-width="2" stroke-linecap="square"></path>
                        <path d="M22.2716346,16.7527556 C23.795634,18.276755 23.795634,20.7476353 22.2716346,22.2716346 C20.7476353,23.795634 18.276755,23.795634 16.7527556,22.2716346 C15.2287563,20.7476353 15.2287563,18.276755 16.7527556,16.7527556 C18.276755,15.2287563 20.7476353,15.2287563 22.2716346,16.7527556" fill-opacity="0" fill="#000000"></path>
                        <path d="M22.2716346,16.7527556 C23.795634,18.276755 23.795634,20.7476353 22.2716346,22.2716346 C20.7476353,23.795634 18.276755,23.795634 16.7527556,22.2716346 C15.2287563,20.7476353 15.2287563,18.276755 16.7527556,16.7527556 C18.276755,15.2287563 20.7476353,15.2287563 22.2716346,16.7527556" stroke="#081A31" stroke-width="2" stroke-linecap="square"></path>
                        <path d="M22.2716346,33.3381217 C23.795634,34.8621215 23.795634,37.3330055 22.2716346,38.8570027 C20.7476353,40.3809991 18.276755,40.3809991 16.7527556,38.8570027 C15.2287563,37.3330055 15.2287563,34.8621215 16.7527556,33.3381217 C18.276755,31.814122 20.7476353,31.814122 22.2716346,33.3381217" fill-opacity="0" fill="#000000"></path>
                        <path d="M22.2716346,33.3381215 C23.795634,34.8621208 23.795634,37.3330011 22.2716346,38.8570005 C20.7476353,40.3809998 18.276755,40.3809998 16.7527556,38.8570005 C15.2287563,37.3330011 15.2287563,34.8621208 16.7527556,33.3381215 C18.276755,31.8141221 20.7476353,31.8141221 22.2716346,33.3381215" stroke="#081A31" stroke-width="2" stroke-linecap="square"></path>
                        <path d="M38.8570005,33.3381217 C40.3809998,34.8621215 40.3809998,37.3330055 38.8570005,38.8570027 C37.3330011,40.3809991 34.8621208,40.3809991 33.3381215,38.8570027 C31.8141221,37.3330055 31.8141221,34.8621215 33.3381215,33.3381217 C34.8621208,31.814122 37.3330011,31.814122 38.8570005,33.3381217" fill-opacity="0" fill="#000000"></path>
                        <path d="M38.8570005,33.3381215 C40.3809998,34.8621208 40.3809998,37.3330011 38.8570005,38.8570005 C37.3330011,40.3809998 34.8621208,40.3809998 33.3381215,38.8570005 C31.8141221,37.3330011 31.8141221,34.8621208 33.3381215,33.3381215 C34.8621208,31.8141221 37.3330011,31.8141221 38.8570005,33.3381215" stroke="#081A31" stroke-width="2" stroke-linecap="square"></path>
                        <path d="M3.90243902,7.80487805 L3.90243902,14.6341463" fill-opacity="0" fill="#000000"></path>
                        <path d="M3.90243902,7.80487805 L3.90243902,14.6341463" stroke="#081A31" stroke-width="2"></path>
                        <path d="M22.2716346,1.14299952 C23.795634,2.66699889 23.795634,5.13787916 22.2716346,6.66187853 C20.7476353,8.18587789 18.276755,8.18587789 16.7527556,6.66187853 C15.2287563,5.13787916 15.2287563,2.66699889 16.7527556,1.14299952 C18.276755,-0.380999841 20.7476353,-0.380999841 22.2716346,1.14299952" fill-opacity="0" fill="#000000"></path>
                        <path d="M22.2716346,1.14299735 C23.795634,2.66699446 23.795634,5.13787855 22.2716346,6.66187826 C20.7476353,8.18587798 18.276755,8.18587798 16.7527556,6.66187826 C15.2287563,5.13787855 15.2287563,2.66699446 16.7527556,1.14299735 C18.276755,-0.380999116 20.7476353,-0.380999116 22.2716346,1.14299735" stroke="#081A31" stroke-width="2" stroke-linecap="square"></path>
                        <path d="M38.8570005,1.14299952 C40.3809998,2.66699889 40.3809998,5.13787916 38.8570005,6.66187853 C37.3330011,8.18587789 34.8621208,8.18587789 33.3381215,6.66187853 C31.8141221,5.13787916 31.8141221,2.66699889 33.3381215,1.14299952 C34.8621208,-0.380999841 37.3330011,-0.380999841 38.8570005,1.14299952" fill-opacity="0" fill="#000000"></path>
                        <path d="M38.8570005,1.14299735 C40.3809998,2.66699446 40.3809998,5.13787855 38.8570005,6.66187826 C37.3330011,8.18587798 34.8621208,8.18587798 33.3381215,6.66187826 C31.8141221,5.13787855 31.8141221,2.66699446 33.3381215,1.14299735 C34.8621208,-0.380999116 37.3330011,-0.380999116 38.8570005,1.14299735" stroke="#081A31" stroke-width="2" stroke-linecap="square"></path>
                        <path d="M38.8570005,16.7527556 C40.3809998,18.276755 40.3809998,20.7476353 38.8570005,22.2716346 C37.3330011,23.795634 34.8621208,23.795634 33.3381215,22.2716346 C31.8141221,20.7476353 31.8141221,18.276755 33.3381215,16.7527556 C34.8621208,15.2287563 37.3330011,15.2287563 38.8570005,16.7527556" fill-opacity="0" fill="#000000"></path>
                        <path d="M38.8570005,16.7527556 C40.3809998,18.276755 40.3809998,20.7476353 38.8570005,22.2716346 C37.3330011,23.795634 34.8621208,23.795634 33.3381215,22.2716346 C31.8141221,20.7476353 31.8141221,18.276755 33.3381215,16.7527556 C34.8621208,15.2287563 37.3330011,15.2287563 38.8570005,16.7527556" stroke="#081A31" stroke-width="2" stroke-linecap="square"></path>
                        <path d="M6.66187826,33.3381217 C8.18587798,34.8621215 8.18587798,37.3330055 6.66187826,38.8570027 C5.13787855,40.3809991 2.66699446,40.3809991 1.14299735,38.8570027 C-0.380999116,37.3330055 -0.380999116,34.8621215 1.14299735,33.3381217 C2.66699446,31.814122 5.13787855,31.814122 6.66187826,33.3381217" fill-opacity="0" fill="#000000"></path>
                        <path d="M6.66187826,33.3381215 C8.18587798,34.8621208 8.18587798,37.3330011 6.66187826,38.8570005 C5.13787855,40.3809998 2.66699446,40.3809998 1.14299735,38.8570005 C-0.380999116,37.3330011 -0.380999116,34.8621208 1.14299735,33.3381215 C2.66699446,31.8141221 5.13787855,31.8141221 6.66187826,33.3381215" stroke="#081A31" stroke-width="2" stroke-linecap="square"></path>
                    </g>
                </g>
            </g>
        </g>
    </g>
</svg>