<?xml version="1.0" encoding="utf-8"?>
<!-- Generator: Adobe Illustrator 22.0.1, SVG Export Plug-In . SVG Version: 6.00 Build 0)  -->
<svg version="1.1" id="Layer_1" xmlns="http://www.w3.org/2000/svg" xmlns:xlink="http://www.w3.org/1999/xlink" x="0px" y="0px"
	 viewBox="0 0 32 32" style="enable-background:new 0 0 32 32;" xml:space="preserve">
<style type="text/css">
	.st0{fill:#00A2DD;}
</style>
<g transform="translate(0, 0)">
	<path class="st0" d="M17.8,20.4c0.4-1.3,1.5-2.5,3.2-3.1c1.5-0.5,3.2-0.5,5.3-0.5c-0.5-5-3.9-8-8.4-10.2l1.5-2.4
		c3.2,1.4,5.9,3.5,8.2,6.2c4.6,5.5,4.1,11.6,1.4,14.9c-2.2,2.7-7,3.4-9.8,0.8C17.5,24.5,17.2,22.5,17.8,20.4z M1.3,20.4
		c0.4-1.3,1.5-2.5,3.2-3.1c1.5-0.5,3.2-0.5,5.3-0.5c-0.5-5-3.9-8-8.4-10.2l1.5-2.4c3.2,1.4,5.9,3.5,8.2,6.2
		c4.6,5.5,4.1,11.6,1.4,14.9c-2.2,2.7-7,3.4-9.8,0.8C1,24.5,0.6,22.5,1.3,20.4z"/>
</g>
</svg>
