<?xml version="1.0" encoding="UTF-8"?>
<svg width="44px" height="44px" viewBox="0 0 44 44" version="1.1" xmlns="http://www.w3.org/2000/svg" xmlns:xlink="http://www.w3.org/1999/xlink">
    <g stroke="none" stroke-width="1" fill="none" fill-rule="evenodd">
        <g transform="translate(-230.000000, -1643.000000)">
            <g transform="translate(0.000000, 1320.000000)">
                <g transform="translate(217.000000, 302.000000)">
                    <g transform="translate(14.000000, 22.000000)">
                        <path d="M22.826087,6.39130435 L42,6.39130435" fill-opacity="0" fill="#000000"></path>
                        <path d="M22.826087,6.39130435 L42,6.39130435" stroke="#081A31" stroke-width="2" stroke-linecap="square"></path>
                        <path d="M0,6.39130435 L5.47826087,6.39130435" fill-opacity="0" fill="#000000"></path>
                        <path d="M0,6.39130435 L5.47826087,6.39130435" stroke="#081A31" stroke-width="2" stroke-linecap="square"></path>
                        <path d="M37.4347826,21 L42,21" fill-opacity="0" fill="#000000"></path>
                        <path d="M37.4347826,21 L42,21" stroke="#081A31" stroke-width="2" stroke-linecap="square"></path>
                        <path d="M0,21 L21,21" fill-opacity="0" fill="#000000"></path>
                        <path d="M0,21 L21,21" stroke="#081A31" stroke-width="2" stroke-linecap="square"></path>
                        <path d="M14.8302342,1.60454837 C16.9696321,3.74393935 16.9696321,7.21258239 14.8302342,9.35197337 C12.6908431,11.4913712 9.22219988,11.4913712 7.0828088,9.35197337 C4.94341156,7.21258239 4.94341156,3.74393935 7.0828088,1.60454837 C9.22219988,-0.534849457 12.6908431,-0.534849457 14.8302342,1.60454837" fill-opacity="0" fill="#000000"></path>
                        <path d="M14.8302342,1.60454578 C16.9696321,3.74393946 16.9696321,7.21258245 14.8302342,9.35197339 C12.6908431,11.4913712 9.22219988,11.4913712 7.0828088,9.35197339 C4.94341156,7.21258245 4.94341156,3.74393946 7.0828088,1.60454578 C9.22219988,-0.534848592 12.6908431,-0.534848592 14.8302342,1.60454578" stroke="#081A31" stroke-width="2" stroke-linecap="square"></path>
                        <path d="M22.826087,36.5217391 L42,36.5217391" fill-opacity="0" fill="#000000"></path>
                        <path d="M22.826087,36.5217391 L42,36.5217391" stroke="#081A31" stroke-width="2" stroke-linecap="square"></path>
                        <path d="M0,36.5217391 L5.47826087,36.5217391" fill-opacity="0" fill="#000000"></path>
                        <path d="M0,36.5217391 L5.47826087,36.5217391" stroke="#081A31" stroke-width="2" stroke-linecap="square"></path>
                        <path d="M14.8302342,32.6480266 C16.9696321,34.7874176 16.9696321,38.2560605 14.8302342,40.3954542 C12.6908431,42.5348486 9.22219988,42.5348486 7.0828088,40.3954542 C4.94341156,38.2560605 4.94341156,34.7874176 7.0828088,32.6480266 C9.22219988,30.5086288 12.6908431,30.5086288 14.8302342,32.6480266" fill-opacity="0" fill="#000000"></path>
                        <path d="M14.8302342,32.6480266 C16.9696321,34.7874176 16.9696321,38.2560607 14.8302342,40.3954516 C12.6908431,42.5348495 9.22219988,42.5348495 7.0828088,40.3954516 C4.94341156,38.2560607 4.94341156,34.7874176 7.0828088,32.6480266 C9.22219988,30.5086288 12.6908431,30.5086288 14.8302342,32.6480266" stroke="#081A31" stroke-width="2" stroke-linecap="square"></path>
                        <path d="M30.3519734,17.1262875 C32.4913712,19.2656785 32.4913712,22.7343215 30.3519734,24.8737125 C28.2125824,27.0131103 24.7439393,27.0131103 22.6045484,24.8737125 C20.4651505,22.7343215 20.4651505,19.2656785 22.6045484,17.1262875 C24.7439393,14.9868897 28.2125824,14.9868897 30.3519734,17.1262875" fill-opacity="0" fill="#000000"></path>
                        <path d="M30.3519734,17.1262875 C32.4913712,19.2656785 32.4913712,22.7343215 30.3519734,24.8737125 C28.2125824,27.0131103 24.7439393,27.0131103 22.6045484,24.8737125 C20.4651505,22.7343215 20.4651505,19.2656785 22.6045484,17.1262875 C24.7439393,14.9868897 28.2125824,14.9868897 30.3519734,17.1262875" stroke="#081A31" stroke-width="2" stroke-linecap="square"></path>
                    </g>
                </g>
            </g>
        </g>
    </g>
</svg>