<?xml version="1.0" encoding="UTF-8"?>
<svg width="51px" height="51px" viewBox="0 0 51 51" version="1.1" xmlns="http://www.w3.org/2000/svg" xmlns:xlink="http://www.w3.org/1999/xlink">
    <g stroke="none" stroke-width="1" fill="none" fill-rule="evenodd">
        <g transform="translate(-782.000000, -1638.000000)" stroke="#081A31" stroke-width="2">
            <g transform="translate(0.000000, 1320.000000)">
                <g transform="translate(773.000000, 302.000000)">
                    <g transform="translate(10.000000, 17.000000)">
                        <g>
                            <path d="M6.01754386,41.2631579 C10.4846027,35.9906433 17.1851911,32.6666667 24.5558382,32.6666667 C31.9264854,32.6666667 38.5153973,35.9906433 42.9824561,41.2631579"></path>
                            <path d="M6.01754386,8.59649123 C10.4846027,13.8690058 17.1851911,17.1929825 24.5558382,17.1929825 C31.9264854,17.1929825 38.5153973,13.8690058 42.9824561,8.59649123"></path>
                            <path d="M24.9298246,49 C33.8701754,44.8795455 38.6842105,35.4136364 38.6842105,24.5 C38.6842105,13.5863636 33.8701754,4.12045455 24.9298246,0"></path>
                            <path d="M24.9298246,49 C15.9894737,44.8795455 11.1754386,35.4136364 11.1754386,24.5 C11.1754386,13.5863636 15.9894737,4.12045455 24.9298246,0"></path>
                            <polyline points="24.9298246 49 24.9298246 46.7727273 24.9298246 2.22727273 24.9298246 0"></polyline>
                            <path d="M0,24.9298246 L49,24.9298246"></path>
                            <circle stroke-linecap="square" cx="24.5" cy="24.5" r="24.5"></circle>
                        </g>
                    </g>
                </g>
            </g>
        </g>
    </g>
</svg>