<?xml version="1.0" encoding="utf-8"?>
<!-- Generator: Adobe Illustrator 22.0.1, SVG Export Plug-In . SVG Version: 6.00 Build 0)  -->
<svg version="1.1" id="Layer_1" xmlns="http://www.w3.org/2000/svg" xmlns:xlink="http://www.w3.org/1999/xlink" x="0px" y="0px"
	 viewBox="0 0 32 32" style="enable-background:new 0 0 32 32;" xml:space="preserve">
<style type="text/css">
	.st0{fill:#00A2DD;}
</style>
<g transform="translate(0, 0)">
	<path class="st0" d="M12.7,26.2C10,28.7,5.2,28.1,3,25.3c-2.6-3.2-3.2-9.4,1.4-14.9c2.3-2.7,5-4.8,8.2-6.2l1.5,2.4
		c-4.6,2.2-8,5.2-8.4,10.2c2.1,0,3.8-0.1,5.3,0.5c1.7,0.6,2.8,1.8,3.2,3.1C14.8,22.5,14.5,24.5,12.7,26.2z M29.3,26.2
		c-2.8,2.6-7.5,1.9-9.8-0.8c-2.6-3.2-3.2-9.4,1.4-14.9c2.3-2.7,5-4.8,8.2-6.2l1.5,2.4c-4.6,2.2-8,5.2-8.4,10.2
		c2.1,0,3.8-0.1,5.3,0.5c1.7,0.6,2.8,1.8,3.2,3.1C31.4,22.5,31,24.5,29.3,26.2z"/>
</g>
</svg>
