<?xml version="1.0" encoding="utf-8"?>
<!-- Generator: Adobe Illustrator 17.1.0, SVG Export Plug-In . SVG Version: 6.00 Build 0)  -->
<!DOCTYPE svg PUBLIC "-//W3C//DTD SVG 1.1//EN" "http://www.w3.org/Graphics/SVG/1.1/DTD/svg11.dtd">
<svg version="1.1" id="Layer_1" xmlns="http://www.w3.org/2000/svg" xmlns:xlink="http://www.w3.org/1999/xlink" x="0px" y="0px"
	 viewBox="0 0 150 40" enable-background="new 0 0 150 40" xml:space="preserve">
<g>
	<g>
		<path fill="#0B1B2F" d="M138.9,7.4h-7.4v0h-1.1c-0.5,0-0.7,0.2-0.7,0.8v21.9c0,0.5,0.2,0.8,0.7,0.8h2.7c0.5,0,0.7-0.2,0.7-0.8
			v-6.8h4.7c5.2,0,9.4-2.7,9.4-8C147.9,10.5,144.4,7.4,138.9,7.4z M138.6,19.6h-4.8v-8.4h4.8c3.1,0,5.1,1.4,5.1,4.2
			C143.7,17.9,141.7,19.6,138.6,19.6z"/>
		<g>
			<path fill="#0B1B2F" d="M103.1,30.1c0,0.5,0.2,0.8,0.7,0.8h2.7c0.5,0,0.7-0.2,0.7-0.8v-7.4h5.2l4.3,6l1,1.4
				c0.3,0.5,0.6,0.8,1.1,0.8h3c0.5,0,1-0.3,0.7-0.8l-1-1.4l-4.8-6.7c3.3-0.9,5.6-3.3,5.6-7.1c0-4.6-3.3-7.4-8.7-7.4h-9.7
				c-0.5,0-0.7,0.2-0.7,0.8V30.1z M113.2,19h-6v-7.9h6c3,0,4.9,1.3,4.9,3.9C118,17.5,116.2,19,113.2,19z"/>
		</g>
		<path fill="#0B1B2F" d="M89.4,8.2c-0.3-0.5-0.5-0.8-1.1-0.8h-2.4c-0.5,0-0.8,0.2-1,0.8l-0.5,1.1l-8.4,19.3l-0.5,1.1
			c-0.2,0.5,0.1,0.8,0.9,0.8h2.4c0.5,0,0.7-0.3,0.9-0.8l0.5-1.1l1.4-3.2h11.1l1.3,3.1l0.7,1.7c0.2,0.5,0.4,0.7,0.9,0.7h2.7
			c0.5,0,0.9-0.3,0.7-0.7l-0.7-1.7L89.4,8.2z M83,21.7l4-9.4l4.1,9.4H83z"/>
		<path fill="#0B1B2F" d="M62.9,18.9l-1,2.3c0,0,0.7-1.7,1.1-2.5C63,18.7,63,18.8,62.9,18.9z"/>
		<path fill="#0B1B2F" d="M67.9,13.4C67.9,13.4,67.9,13.4,67.9,13.4C67.9,13.4,67.9,13.4,67.9,13.4z"/>
		<path opacity="0.47" fill="#0B1B2F" d="M69.5,9.5L69.5,9.5C69.5,9.5,69.5,9.5,69.5,9.5C69.5,9.5,69.5,9.5,69.5,9.5z"/>
		<path opacity="0.47" fill="#0B1B2F" d="M69.7,10.5C69.7,10.5,69.7,10.5,69.7,10.5L69.7,10.5L69.7,10.5z"/>
		<path fill="#0B1B2F" d="M70.9,18.1h-7.1c-0.5,0-0.6,0.1-0.8,0.5c-0.4,0.8-1.1,2.5-1.1,2.5v0c-0.2,0.5,0,0.6,0.7,0.6h5.1v4.4
			c-0.3,0.2-0.6,0.4-1,0.6c-1,0.6-2.2,0.9-3.6,1.1c-0.4,0-0.7,0.1-1.1,0.1c0,0,0,0,0,0c-1,0-2-0.2-2.9-0.5c-3.1-1.1-5.1-4.1-5.1-7.9
			c0-4.6,3.3-8.3,7.6-8.3c2.8,0,4.5,0.8,6.2,2.2c0,0,0,0,0,0c0.1,0.1,0.2,0.1,0.3,0.1c0.1,0,0.2-0.1,0.3-0.4l1.1-2.6l0.1-0.1
			c0.2-0.4,0.2-0.6-0.2-0.9c0,0,0,0-0.1,0c-2-1.4-4.3-2.1-7.6-2.1c0,0,0,0,0,0c0,0,0,0,0,0c-7.1,0-12.1,5.6-12.1,12.2
			c0,6.9,4.8,12.1,12.2,12.1c0,0,0,0,0,0c0,0,0,0,0,0c4,0,7.2-1.5,9.5-3.4c0,0,0.3-0.3,0.3-0.9v-8.5C71.7,18.3,71.5,18.1,70.9,18.1z
			"/>
	</g>
	<g>
		<path fill="#00A2DD" d="M26.6,20c0,2.3-1.8,4.1-4.1,4.1c-2.3,0-4.1-1.8-4.1-4.1c0-2.3,1.8-4.1,4.1-4.1
			C24.8,15.9,26.6,17.7,26.6,20"/>
		<path fill="#0B1B2F" d="M27.5,38.1C17.1,36.9,8,30.7,8,22.7c0-7,7.2-12.5,15.7-14.7c0,0,0.3-0.1,0.3-0.3c0-0.2-0.3-0.2-0.3-0.2
			C12.9,8.6,2.2,14.7,2.2,22.9c0,9,12.6,15.6,24.6,15.6c0.2,0,0.4,0,0.6,0c0.3,0,0.3-0.2,0.3-0.2C27.8,38.1,27.5,38.1,27.5,38.1z"/>
		<path fill="#0B1B2F" d="M17.5,2C27.9,3.2,37,9.4,37,17.4c0,7-7.2,12.5-15.7,14.7c0,0-0.3,0.1-0.3,0.3c0,0.2,0.3,0.2,0.3,0.2
			c10.8-1.1,21.5-7.2,21.5-15.4c0-9-12.6-15.6-24.6-15.6c-0.2,0-0.4,0-0.6,0c-0.3,0-0.3,0.2-0.3,0.2C17.2,2,17.5,2,17.5,2z"/>
	</g>
</g>
</svg>
